<?xml version="1.0" standalone="yes"?>
<svg xmlns="http://www.w3.org/2000/svg" width="48" height="48">
<path style="fill:#010101; stroke:none;" d="M0 0L0 48L48 48L48 0L0 0z"/>
<path style="fill:#273339; stroke:none;" d="M12 35L10 44C17.3667 41.2078 22.1924 39.0438 30 37.6713C48.934 34.3428 49.8414 8.88469 31 4.52932C23.3873 2.76957 13.9699 3.81642 8.05478 9.21373C-0.246344 16.7882 2.02439 30.3061 12 35z"/>
<path style="fill:#f5c42a; stroke:none;" d="M8 16L8 17L11 26L13 26L15 16L8 16z"/>
<path style="fill:#a58b2f; stroke:none;" d="M15.3333 16.6667L15.6667 17.3333L15.3333 16.6667M18 16L19 17L18 16z"/>
<path style="fill:#f5c42a; stroke:none;" d="M19 16L15 26L23 27L19 16z"/>
<path style="fill:#a58b2f; stroke:none;" d="M20 16L21 17L20 16z"/>
<path style="fill:#f5c42a; stroke:none;" d="M25 16L25 27L30 27L27 25L25 16z"/>
<path style="fill:#a58b2f; stroke:none;" d="M26 16L27 17L26 16z"/>
<path style="fill:#f5c42a; stroke:none;" d="M32 16L32 26L34 26L34 22L39 27L39 16L34 20L32 16z"/>
<path style="fill:#a58b2f; stroke:none;" d="M33 16L34 17L33 16M37 16L38 17L37 16M8 17L9 18L8 17M36 17L37 18L36 17z"/>
<path style="fill:#5a5636; stroke:none;" d="M17 18L18 19L17 18M21 18L22 19L21 18z"/>
<path style="fill:#a58b2f; stroke:none;" d="M35 18L36 19L35 18z"/>
<path style="fill:#5a5636; stroke:none;" d="M38 18L39 19L38 18z"/>
<path style="fill:#a58b2f; stroke:none;" d="M17 19L18 20L17 19M19 19L20 20L19 19M21 19L22 20L21 19M34 19L35 20L34 19z"/>
<path style="fill:#5a5636; stroke:none;" d="M37 19L38 20L37 19M19 20L20 21L19 20M36 20L37 21L36 20z"/>
<path style="fill:#a58b2f; stroke:none;" d="M16 21L17 22L16 21M18 21L19 22L18 21z"/>
<path style="fill:#273339; stroke:none;" d="M19.3333 21.6667L19.6667 22.3333L19.3333 21.6667z"/>
<path style="fill:#a58b2f; stroke:none;" d="M20 21L21 22L20 21M22 21L23 22L22 21M36 21L37 22L36 21z"/>
<path style="fill:#5a5636; stroke:none;" d="M18 22L19 23L18 22M20 22L21 23L20 22M34 22L35 23L34 22z"/>
<path style="fill:#a58b2f; stroke:none;" d="M37 22L38 23L37 22z"/>
<path style="fill:#5a5636; stroke:none;" d="M15 23L16 24L15 23M23 23L24 24L23 23M35 23L36 24L35 23M38 23L39 24L38 23z"/>
<path style="fill:#a58b2f; stroke:none;" d="M15 24L16 25L15 24M23 24L24 25L23 24M36 24L37 25L36 24z"/>
<path style="fill:#5a5636; stroke:none;" d="M39 24L40 25L39 24M17 25L18 26L17 25M21 25L22 26L21 25z"/>
<path style="fill:#a58b2f; stroke:none;" d="M30.3333 25.6667L30.6667 26.3333L30.3333 25.6667M37 25L38 26L37 25M11.6667 26.3333L12.3333 26.6667L11.6667 26.3333M15.6667 26.3333L16.3333 26.6667L15.6667 26.3333M23 26L24 27L23 26M32.6667 26.3333L33.3333 26.6667L32.6667 26.3333M39 26L40 27L39 26z"/>
</svg>
